<?xml version="1.0" standalone="no"?>
<!DOCTYPE svg PUBLIC "-//W3C//DTD SVG 20010904//EN"
 "http://www.w3.org/TR/2001/REC-SVG-20010904/DTD/svg10.dtd">
<svg version="1.0" xmlns="http://www.w3.org/2000/svg"
 width="512.000000pt" height="512.000000pt" viewBox="0 0 512.000000 512.000000"
 preserveAspectRatio="xMidYMid meet">

<g transform="translate(0.000000,512.000000) scale(0.100000,-0.100000)"
fill="#000000" stroke="none">
<path d="M2513 4894 c-60 -30 -63 -47 -63 -405 l0 -323 -62 61 c-72 70 -94 83
-138 83 -48 0 -100 -56 -100 -106 0 -36 10 -48 183 -221 182 -182 183 -183
227 -183 44 0 45 1 227 183 173 173 183 185 183 221 0 50 -52 106 -100 106
-44 0 -66 -13 -137 -83 l-63 -61 0 323 c0 360 -2 376 -65 405 -41 20 -52 20
-92 0z"/>
<path d="M2494 3072 c-39 -31 -44 -55 -44 -212 0 -92 4 -160 11 -173 19 -38
51 -57 97 -57 35 0 49 6 73 29 l29 29 0 172 0 172 -29 29 c-24 23 -38 29 -73
29 -26 0 -52 -7 -64 -18z"/>
<path d="M1474 2801 c-35 -22 -60 -78 -49 -112 4 -12 41 -80 82 -151 64 -109
81 -133 111 -145 43 -18 78 -10 115 25 47 45 39 87 -47 238 -95 164 -135 192
-212 145z"/>
<path d="M3530 2787 c-29 -15 -79 -86 -140 -202 -41 -75 -43 -85 -35 -121 20
-78 116 -107 172 -52 33 34 153 248 153 274 0 40 -19 74 -52 94 -38 23 -63 25
-98 7z"/>
<path d="M2325 2466 c-560 -92 -1008 -455 -1204 -977 l-40 -104 -510 -5 -509
-5 -26 -24 c-27 -26 -42 -76 -32 -109 4 -11 18 -32 33 -46 l26 -26 2496 0
c2350 0 2497 1 2517 18 52 42 58 106 15 154 l-29 33 -514 3 -513 3 -29 82
c-16 45 -53 129 -83 187 -210 412 -591 701 -1056 802 -119 25 -424 34 -542 14z
m490 -221 c375 -78 693 -303 888 -631 30 -50 107 -216 107 -230 0 -2 -562 -4
-1250 -4 -746 0 -1250 4 -1250 9 0 17 67 166 100 221 101 171 247 327 406 433
184 122 346 182 599 221 63 9 322 -3 400 -19z"/>
<path d="M733 2056 c-33 -15 -63 -60 -63 -96 0 -49 29 -78 142 -143 180 -103
176 -101 219 -88 72 22 100 93 60 156 -20 32 -253 172 -300 181 -14 2 -40 -2
-58 -10z"/>
<path d="M4290 2050 c-38 -11 -251 -138 -266 -158 -54 -72 18 -189 104 -167
41 10 251 135 272 162 24 31 26 90 4 122 -13 18 -74 54 -86 50 -2 0 -14 -4
-28 -9z"/>
<path d="M721 886 c-31 -17 -50 -53 -51 -94 0 -26 9 -43 34 -68 l34 -34 1816
0 c1386 0 1821 3 1841 12 67 30 73 130 11 180 -20 17 -131 18 -1841 17 -1492
0 -1824 -2 -1844 -13z"/>
<path d="M1563 410 c-17 -10 -37 -28 -42 -39 -16 -29 -13 -83 5 -110 37 -52
11 -51 1034 -51 1023 0 997 -1 1034 51 21 30 21 88 0 118 -37 52 -10 51 -1041
51 -931 0 -959 -1 -990 -20z"/>
</g>
</svg>
